<svg width="115" height="25" viewBox="0 0 115 25" fill="none" xmlns="http://www.w3.org/2000/svg">
<g clip-path="url(#clip0_40_1687)">
<path d="M37.005 14.1833L32.4354 1.311H27.7936L34.5636 19.4291H39.2054L45.999 1.311H41.5746L37.005 14.1833Z" fill="white"/>
<path d="M53.9062 15.1299L50.0866 5.48787H45.5648L51.9477 19.7936L50.1588 24.7719H54.269L61.4741 5.48787H57.316L53.9062 15.1299Z" fill="white"/>
<path d="M76.4202 5.52196H71.4634L66.9181 10.2337V0.518288H62.9288V19.4632H66.9181V15.1884L68.2476 13.7061L71.9706 19.4632H76.7586L71.1728 11.0107L76.4202 5.52196Z" fill="white"/>
<path d="M78.6693 5.52196L74.7905 9.52926H79.2174V19.4632H83.2067V9.52926V5.52196H79.2174H78.6693Z" fill="white"/>
<path d="M93.531 5.15837C91.4028 5.15837 89.8315 6.2028 88.9858 7.22277V5.52196H85.1896V19.4623H89.1789V11.3017C89.1789 9.67522 90.6293 8.70333 91.8866 8.70333C93.337 8.70333 94.4968 9.48032 94.4968 11.5447V19.4623H98.5104V10.3307C98.5113 7.12488 96.384 5.15837 93.531 5.15837Z" fill="white"/>
<path d="M111.156 7.17295C109.923 5.83747 108.231 4.96347 106.465 4.96347C103.009 4.96347 99.8895 7.73231 99.8895 11.9555C99.8895 16.0843 103.032 18.8531 106.465 18.8531C108.159 18.8531 109.802 18.0753 111.012 16.8613V17.5902C111.012 20.6492 109.369 21.5669 106.964 21.5949H100.351V24.9983H106.542V24.9886C106.684 24.9886 106.827 24.9983 106.968 24.9983C112.336 24.9983 114.996 22.8368 114.996 17.4451V5.52196H111.151L111.156 7.17295ZM106.962 15.5328C105.038 15.5328 103.409 13.9465 103.409 12.0132C103.409 10.0301 105.038 8.41841 106.962 8.41841C108.912 8.41841 110.491 10.0301 110.491 12.0132C110.486 12.9495 110.112 13.8456 109.451 14.5053C108.789 15.1649 107.894 15.5344 106.962 15.5328Z" fill="white"/>
<path d="M81.2125 0.00174731C80.7922 0.00157445 80.3813 0.126625 80.0317 0.36108C79.6822 0.595535 79.4097 0.928862 79.2488 1.31889C79.0879 1.70892 79.0457 2.13814 79.1277 2.55223C79.2097 2.96633 79.412 3.34671 79.7092 3.64525C80.0064 3.9438 80.3851 4.14709 80.7973 4.22941C81.2096 4.31174 81.6369 4.2694 82.0251 4.10775C82.4134 3.9461 82.7452 3.6724 82.9786 3.32128C83.212 2.97016 83.3365 2.55739 83.3363 2.13519C83.3363 1.56937 83.1126 1.02672 82.7143 0.626618C82.316 0.22652 81.7758 0.00174731 81.2125 0.00174731Z" fill="white"/>
<path d="M0.204467 23.8961V22.6944H0.408064V6.17571H0.204467V7.37747H0V23.8961H0.204467Z" fill="white"/>
<path d="M1.5661 22.6944H1.7697V21.4926H1.97416V4.97395H1.7697V6.17571H1.5661V7.37746H1.36163V23.8961H1.5661V22.6944Z" fill="white"/>
<path d="M6.26367 22.6944H6.46814V21.4926H6.67173V20.2909H6.8762V19.0891H7.0798V17.8882H7.28339V1.36869H7.0798V2.57045H6.8762V3.7722H6.67173V4.97396H6.46814V6.17571H6.26367V7.37746H6.0592V23.8961H6.26367V22.6944Z" fill="white"/>
<path d="M7.82977 22.6944H8.03337V21.4926H8.23784V20.2909H8.4423V19.0891H8.6459V17.8882H8.8495V1.36869H8.64503V2.57045H8.4423V3.7722H8.23784V4.97396H8.03337V6.17571H7.82977V7.37746H7.62531V23.8961H7.82977V22.6944Z" fill="white"/>
<path d="M9.39593 22.6944H9.59953V21.4926H9.804V20.2909H10.0076V19.0891H10.2121V17.8882H10.4157V1.36869H10.2112V2.57045H10.0076V3.7722H9.804V4.97396H9.59953V6.17571H9.39593V7.37746H9.19147V23.8961H9.39593V22.6944Z" fill="white"/>
<path d="M10.9612 22.6944H11.1656V21.4926H11.3701V20.2909H11.5737V19.0891H11.7782V17.8882H11.9818V1.36869H11.7773V2.57045H11.5737V3.7722H11.3701V4.97396H11.1656V6.17571H10.9612V7.37746H10.7576V23.8961H10.9612V22.6944Z" fill="white"/>
<path d="M12.5273 22.6944H12.7317V21.4926H12.9353V20.2909H13.1398V19.0891H13.3434V17.8882H13.547V1.36869H13.3434V2.57045H13.1398V3.7722H12.9353V4.97396H12.7317V6.17571H12.5273V7.37746H12.3228V23.8961H12.5273V22.6944Z" fill="white"/>
<path d="M14.0934 22.6944H14.297V21.4926H14.5015V20.2909H14.706V19.0891H14.9096V17.8882H15.1132V1.36869H14.9087V2.57045H14.706V3.7722H14.5015V4.97396H14.297V6.17571H14.0934V7.37746H13.889V23.8961H14.0934V22.6944Z" fill="white"/>
<path d="M15.6595 22.6944H15.8631V21.4926H16.0676V20.2909H16.2712V19.0891H16.4757V17.8882H16.6793V1.36869H16.4748V2.57045H16.2712V3.7722H16.0676V4.97396H15.8631V6.17571H15.6595V7.37746H15.4551V23.8961H15.6595V22.6944Z" fill="white"/>
<path d="M17.2248 22.6944H17.4293V21.4926H17.6338V20.2909H17.8374V19.0891H18.0418V17.8882H18.2446V1.36869H18.041V2.57045H17.8374V3.7722H17.6338V4.97396H17.4293V6.17571H17.2248V7.37746H17.0212V23.8961H17.2248V22.6944Z" fill="white"/>
<path d="M18.9954 21.4926H19.199V20.2909H19.4035V19.0891H19.6071V17.8882H19.8107V1.36869H19.6071V2.57045H19.4035V3.7722H19.199V4.97396H18.9954V6.17571H18.791V22.6944H18.9954V21.4926Z" fill="white"/>
<path d="M20.7651 20.2909H20.9696V19.0891H21.1732V17.8882H21.3768V1.36869H21.1723V2.57045H20.9696V3.7722H20.7651V4.97395H20.5607V21.4926H20.7651V20.2909Z" fill="white"/>
<path d="M4.69749 22.6944H4.90196V21.4926H5.10643V20.2909H5.31002V19.0891H5.51449V2.57044H5.31002V3.7722H5.10643V4.97395H4.90196V6.17571H4.69749V7.37746H4.4939V23.8961H4.69749V22.6944Z" fill="white"/>
<path d="M3.13139 22.6944H3.33586V21.4926H3.54033V20.2909H3.74392V3.7722H3.54033V4.97396H3.33586V6.17571H3.13139V7.37747H2.9278V23.8961H3.13139V22.6944Z" fill="white"/>
<path d="M22.5375 19.0891H22.7419V17.8882H22.9447V1.36869H22.7411V2.57045H22.5375V3.7722H22.333V20.2909H22.5375V19.0891Z" fill="white"/>
<path d="M24.1036 17.8882H24.3072V1.36869H24.1027V2.57045H23.8991V19.0891H24.1036V17.8882Z" fill="white"/>
</g>
<defs>
<clipPath id="clip0_40_1687">
<rect width="115" height="25" fill="white"/>
</clipPath>
</defs>
</svg>
